<svg width="78" height="79" viewBox="0 0 78 79" fill="none" xmlns="http://www.w3.org/2000/svg">
<circle cx="38.8064" cy="39.7846" r="38.7846" fill="#E8E9FF"/>
<path d="M44.8085 24.7211C44.7101 24.8125 44.6468 25.0094 44.5906 25.4312C44.3726 27.0414 43.1984 28.1734 41.5531 28.3562C41.0117 28.4195 40.9203 28.4828 40.9203 28.7852C40.9203 29.1016 41.0468 29.1789 41.6726 29.2492C43.1984 29.418 44.3796 30.5852 44.5906 32.1391C44.6749 32.7437 44.8015 32.9688 45.0687 32.9688C45.2656 32.9688 45.4906 32.6312 45.4906 32.343C45.4906 31.9633 45.6804 31.2883 45.8914 30.9297C46.4539 29.9664 47.5999 29.2422 48.5492 29.2422C49.0765 29.2422 49.407 28.8062 49.0976 28.518C49.0273 28.4617 48.7249 28.3773 48.4085 28.3352C47.0445 28.1523 45.9335 27.1891 45.596 25.9023C45.5398 25.6703 45.4906 25.368 45.4906 25.2133C45.4906 25.0234 45.4414 24.8969 45.3148 24.7773C45.1109 24.5664 44.9914 24.5594 44.8085 24.7211Z" fill="#7750F1"/>
<path d="M32.1026 27.7165C32.0112 27.7798 31.962 27.9626 31.9198 28.3353C31.8143 29.2423 31.5049 29.8681 30.8721 30.4587C30.3237 30.972 29.4166 31.3517 28.7416 31.3517C28.3057 31.3517 28.0596 31.7033 28.2846 32.0126C28.3479 32.104 28.5588 32.1673 28.9877 32.2306C30.3518 32.4345 31.3573 33.2501 31.7721 34.4947C31.8565 34.7337 31.9198 35.0572 31.9198 35.2119C31.9198 35.7533 32.1237 35.9923 32.5174 35.8939C32.7143 35.8447 32.7354 35.7814 32.8338 35.0853C33.0377 33.6298 34.1838 32.4697 35.6252 32.2517C35.8924 32.2165 36.1666 32.1673 36.251 32.1533C36.3284 32.1392 36.4338 32.0408 36.4831 31.9353C36.5534 31.7736 36.5463 31.7244 36.4338 31.5697C36.3565 31.4572 36.2159 31.3798 36.0963 31.3658C35.9838 31.3587 35.7096 31.3165 35.4776 31.2744C34.1416 31.0353 33.0377 29.8681 32.8338 28.497C32.7987 28.2298 32.7635 27.9767 32.7635 27.9275C32.7635 27.6744 32.3416 27.5408 32.1026 27.7165Z" fill="#7750F1"/>
<path d="M39.3377 35.1415C38.9229 35.254 38.7401 35.3595 38.4307 35.6408C37.376 36.6181 37.7346 38.4462 39.0776 38.9033C40.7229 39.4658 42.2346 37.8697 41.5526 36.2876C41.3768 35.8869 40.9057 35.4087 40.5331 35.247C40.2307 35.1205 39.612 35.0712 39.3377 35.1415Z" fill="#7750F1"/>
<path d="M26.428 37.9187C26.2874 37.9679 26.0764 38.0734 25.9569 38.1578C25.6897 38.3476 25.3803 38.9593 25.3803 39.2898C25.3733 39.7046 25.6827 42.3203 25.7389 42.3203C25.76 42.3203 28.5796 42.7281 31.9967 43.2343C35.4139 43.7335 38.2264 44.1273 38.2475 44.0992C38.2686 44.0781 37.9522 43.7476 37.5444 43.3609C34.521 40.4921 31.1741 38.6429 27.7569 37.9609C26.9413 37.7992 26.7725 37.7921 26.428 37.9187Z" fill="#7750F1"/>
<path d="M49.9554 37.9963C47.1288 38.6221 44.4429 39.951 41.9749 41.9549C40.9765 42.7635 39.5983 44.0432 39.6616 44.1065C39.6827 44.1276 42.1788 43.7831 45.2163 43.3401C52.1913 42.3135 52.2054 42.3135 52.2124 42.2995C52.2687 42.2151 52.5288 39.4096 52.5007 39.1846C52.4515 38.7487 52.1562 38.2776 51.7835 38.0667C51.3476 37.8065 50.8905 37.7854 49.9554 37.9963Z" fill="#7750F1"/>
<path d="M24.4593 43.1219C24.0234 43.2344 23.7281 43.4594 23.5031 43.8531L23.3062 44.1836L23.2851 46.1312L23.264 48.0859H30.2179C36.8624 48.0859 37.1789 48.093 37.2843 48.2125C37.3898 48.325 37.4039 48.55 37.4039 49.9V51.4609H38.9507H40.4976V49.893C40.4976 48.4586 40.5117 48.3109 40.6242 48.2055C40.7437 48.093 41.3343 48.0859 47.6976 48.0859H54.6374L54.6164 46.1312L54.5953 44.1836L54.3984 43.8461C54.2929 43.6633 54.082 43.4383 53.9414 43.3398C53.4351 43.0094 53.2593 43.0094 50.9882 43.3398C49.8351 43.5086 46.7203 43.9727 44.0484 44.3594C41.3835 44.7531 39.0843 45.0766 38.9507 45.0766C38.8171 45.0766 37.4109 44.8797 35.8218 44.6477C31.4835 44.0078 30.2109 43.825 27.5953 43.4453C26.2804 43.2555 25.1132 43.0797 24.9937 43.0656C24.8812 43.0445 24.6351 43.0727 24.4593 43.1219Z" fill="#7750F1"/>
<path d="M23.0604 49.0914C21.9495 49.675 21.9565 51.1867 23.0604 51.8125L23.3768 51.9883L28.4463 52.0094L33.5159 52.0305L33.5651 52.3469C33.6284 52.8391 34.0362 53.6336 34.4581 54.0906C34.9362 54.618 35.5338 55.0047 36.1737 55.2086C36.6377 55.3563 36.7854 55.3633 38.951 55.3633C41.1166 55.3633 41.2643 55.3563 41.7284 55.2086C42.3682 55.0047 42.9659 54.618 43.444 54.0906C43.8659 53.6336 44.2737 52.8391 44.337 52.3469L44.3862 52.0305L49.4557 52.0094L54.5252 51.9883L54.8416 51.8125C55.9456 51.1867 55.9526 49.675 54.8416 49.0914L54.5393 48.9297H48.0565C41.9604 48.9297 41.5666 48.9367 41.4612 49.0563C41.3698 49.1547 41.3487 49.4148 41.3276 50.5258L41.3065 51.8828L41.1096 52.0727L40.9198 52.2695H38.951H36.9823L36.7924 52.0727L36.5956 51.8828L36.5745 50.5258C36.5534 49.4148 36.5323 49.1547 36.4409 49.0563C36.3354 48.9367 35.9416 48.9297 29.8456 48.9297H23.3627L23.0604 49.0914Z" fill="#7750F1"/>
</svg>
