<svg width="79" height="79" viewBox="0 0 79 79" fill="none" xmlns="http://www.w3.org/2000/svg">
<circle cx="39.6279" cy="39.7846" r="38.7846" fill="#E8E9FF"/>
<path d="M25.8926 27.1054C25.541 27.2249 25.2949 27.4569 25.1332 27.8085C25.0067 28.0757 24.9996 28.5819 24.9996 40.4999C24.9996 52.3897 25.0067 52.9241 25.1332 53.1913C25.2879 53.5429 25.6184 53.8312 25.9699 53.9296C26.3356 54.028 53.6168 54.028 53.9824 53.9296C54.334 53.8312 54.6645 53.5429 54.8192 53.1913C54.9457 52.9241 54.9528 52.3897 54.9528 40.4999C54.9528 28.6101 54.9457 28.0757 54.8192 27.8085C54.6645 27.4569 54.334 27.1687 53.9824 27.0702C53.8067 27.021 49.2153 26.9999 39.941 26.9999C28.452 27.0069 26.1176 27.021 25.8926 27.1054ZM38.4504 40.4507C39.7512 43.7062 40.8199 46.3921 40.8199 46.4272C40.8199 46.4554 40.0887 46.4694 39.1887 46.4624L37.5574 46.4413L37.2692 45.7171L36.9879 44.9999L34.5692 45.014L32.1574 45.0351L31.8692 45.7522L31.5879 46.4765H29.9356C28.6489 46.4765 28.2973 46.4554 28.3254 46.3851C28.8457 45.0702 33.0364 34.6147 33.0645 34.5726C33.0785 34.5444 33.7676 34.5233 34.5903 34.5233H36.0809L38.4504 40.4507ZM50.4528 40.4999V46.4765H47.8653C44.9895 46.4765 44.8418 46.4624 43.9207 46.0124C43.2809 45.696 42.5074 44.9788 42.1348 44.3601C41.7059 43.6288 41.509 42.9187 41.502 42.0468C41.4949 41.1749 41.6215 40.6194 41.9871 39.8952C42.3106 39.2413 42.8379 38.6577 43.4707 38.2429C44.3356 37.6804 45.1653 37.4835 46.677 37.4765H47.4996V35.9999V34.5233H48.9762H50.4528V40.4999Z" fill="#7750F1"/>
<path d="M34.5856 38.3825C34.5856 38.4036 34.3184 39.0997 34.002 39.9294L33.4184 41.4411L34.5715 41.4622C35.2114 41.4692 35.7387 41.4692 35.7528 41.4551C35.7668 41.4411 35.5067 40.738 35.1832 39.8872C34.8598 39.0434 34.5856 38.3614 34.5856 38.3825Z" fill="#7750F1"/>
<path d="M45.336 40.1969C44.8298 40.4641 44.5485 40.9 44.5134 41.5047C44.4853 41.8984 44.5064 41.9617 44.7243 42.2852C44.879 42.5172 45.0689 42.6859 45.3079 42.8125C45.6243 42.9742 45.7298 42.9883 46.5735 42.9883H47.4876L47.5087 41.4906L47.5228 40H46.6157C45.7579 40 45.6876 40.0141 45.336 40.1969Z" fill="#7750F1"/>
</svg>
