<svg width="79" height="79" viewBox="0 0 79 79" fill="none" xmlns="http://www.w3.org/2000/svg">
<circle cx="39.6071" cy="39.8031" r="38.7846" fill="#E8E9FF"/>
<path d="M25.6142 23.2377C24.4259 23.5541 23.4978 24.5033 23.1814 25.7057C23.0197 26.3174 23.0267 42.44 23.1814 43.0588C23.4978 44.2682 24.44 45.2033 25.6564 45.5197C26.2541 45.6744 35.6478 45.6744 36.2455 45.5197C37.4619 45.2033 38.4041 44.2682 38.7205 43.0588C38.8752 42.44 38.8822 26.3174 38.7205 25.7057C38.4041 24.4893 37.4689 23.5471 36.2595 23.2307C35.6619 23.076 26.1978 23.083 25.6142 23.2377Z" fill="#7750F1"/>
<path d="M43.6142 23.2375C42.4259 23.5539 41.4978 24.5031 41.1814 25.7055C41.0337 26.282 41.0337 28.975 41.1814 29.5586C41.4978 30.768 42.44 31.7031 43.6564 32.0195C44.2611 32.1812 53.6478 32.1742 54.2595 32.0195C55.4689 31.7031 56.4041 30.7609 56.7205 29.5445C56.8681 28.975 56.8681 26.275 56.7205 25.7055C56.4041 24.489 55.4689 23.5469 54.2595 23.2305C53.6619 23.0758 44.1978 23.0828 43.6142 23.2375Z" fill="#7750F1"/>
<path d="M43.6142 34.4877C42.4259 34.8041 41.4978 35.7533 41.1814 36.9557C41.0197 37.5674 41.0267 53.69 41.1814 54.3088C41.4978 55.5182 42.44 56.4533 43.6564 56.7697C44.2541 56.9244 53.6478 56.9244 54.2455 56.7697C55.4619 56.4533 56.4041 55.5182 56.7205 54.3088C56.8752 53.69 56.8822 37.5674 56.7205 36.9557C56.4041 35.7393 55.4689 34.7971 54.2595 34.4807C53.6619 34.326 44.1978 34.333 43.6142 34.4877Z" fill="#7750F1"/>
<path d="M25.6142 47.9875C24.4259 48.3039 23.4978 49.2531 23.1814 50.4555C23.0338 51.032 23.0338 53.725 23.1814 54.3086C23.4978 55.518 24.44 56.4531 25.6564 56.7695C26.2611 56.9312 35.6478 56.9242 36.2595 56.7695C37.4689 56.4531 38.4041 55.5109 38.7205 54.2945C38.8681 53.725 38.8681 51.025 38.7205 50.4555C38.4041 49.239 37.4689 48.2969 36.2595 47.9805C35.6619 47.8258 26.1978 47.8328 25.6142 47.9875Z" fill="#7750F1"/>
</svg>
