<svg width="82" height="82" viewBox="0 0 82 82" fill="none" xmlns="http://www.w3.org/2000/svg">
<circle cx="40.7846" cy="40.8026" r="39.7846" fill="#E8E9FF" stroke="white" stroke-width="2"/>
<path d="M41.8648 24.519C41.7664 24.533 41.457 24.5822 41.1758 24.6244C40.5008 24.7229 39.5937 25.0322 38.9187 25.3979C37.0977 26.3752 35.8039 27.9924 35.2062 30.0455L35.0164 30.6994L34.9883 36.5846L34.9672 42.4768H32.6469C31.3742 42.4768 30.0242 42.5119 29.6516 42.5541C27.0078 42.8494 24.7789 44.4525 23.6469 46.8783C23.4922 47.2018 23.2812 47.7854 23.1828 48.158C23.0211 48.7627 23 48.9736 23 50.0002C23 51.0338 23.0211 51.2377 23.1828 51.8635C23.8086 54.2119 25.6227 56.2229 27.8305 57.0174C29.1945 57.5166 28.2664 57.4815 40.4234 57.5096C48.0242 57.5236 51.6242 57.5096 52.1445 57.4533C55.3297 57.1299 57.8609 54.9713 58.7258 51.8424L58.9156 51.1604V41.0002V30.84L58.7258 30.158C57.875 27.0713 55.3648 24.8986 52.25 24.5541C51.6312 24.4838 42.3148 24.4557 41.8648 24.519ZM46.3016 30.6361C46.8289 30.7979 47.2016 31.0299 47.6164 31.4588C48.3477 32.2393 48.4742 32.7385 48.4742 34.9533C48.4742 35.8252 48.4461 36.7182 48.4039 36.9502C48.193 38.2369 47.1875 39.2424 45.9008 39.4533C45.6687 39.4955 44.7758 39.5236 43.9039 39.5236C41.6891 39.5236 41.1898 39.3971 40.4094 38.6658C39.9734 38.2439 39.7414 37.8783 39.5797 37.3299C39.4812 36.9924 39.4672 36.6197 39.4883 34.8268L39.5094 32.7314L39.7766 32.1971C40.1562 31.4236 40.7891 30.8893 41.6187 30.6221C41.8156 30.5588 42.4906 30.5307 43.9109 30.5307C45.5562 30.5236 45.9852 30.5447 46.3016 30.6361ZM53.6914 42.7088C54.282 43.0533 54.5633 43.7565 54.3734 44.4244C54.2609 44.8393 53.825 45.2963 53.4242 45.4158C53.2062 45.4791 51.6312 45.5002 46.8992 45.5002C41.4219 45.5002 40.6344 45.4861 40.4023 45.3877C39.8469 45.1557 39.4742 44.6143 39.4742 44.0236C39.4742 43.2854 39.868 42.765 40.5992 42.54C40.6977 42.5119 43.6086 42.4908 47.068 42.4979L53.3609 42.5119L53.6914 42.7088ZM34.9531 48.1158C34.925 50.9916 34.9039 51.1322 34.468 51.9971C33.7297 53.4666 32.3445 54.3736 30.6852 54.4791C28.5758 54.6127 26.5648 53.115 26.0867 51.0549C25.9461 50.4713 25.9461 49.5291 26.0867 48.9455C26.375 47.715 27.2961 46.5619 28.4352 45.9994C29.3773 45.5424 29.6023 45.5143 32.4641 45.5072L34.9883 45.5002L34.9531 48.1158ZM53.593 48.6572C54.5703 49.1565 54.7391 50.401 53.9375 51.1041C53.7969 51.2307 53.5578 51.3643 53.4172 51.4065C53.2273 51.4627 51.2375 51.4768 46.7797 51.4627L40.4164 51.4416L40.1562 51.2658C40.0086 51.1674 39.8047 50.9635 39.6992 50.8158C39.5305 50.5697 39.5094 50.4713 39.5094 49.9932C39.5094 49.501 39.5305 49.4236 39.7203 49.1494C39.8398 48.9877 40.0719 48.7768 40.2406 48.6854L40.55 48.5236H46.9414C53.0937 48.5236 53.3398 48.5307 53.593 48.6572Z" fill="#7750F1"/>
<path d="M42.477 33.5258C42.4488 33.5469 42.4277 34.2289 42.4277 35.0375V36.5H43.9395H45.4512V34.9883V33.4766H43.9887C43.1801 33.4766 42.498 33.4977 42.477 33.5258Z" fill="#7750F1"/>
</svg>
