<svg width="16" height="28" viewBox="0 0 16 28" fill="none" xmlns="http://www.w3.org/2000/svg">
<path d="M15.4141 1.2721C15.789 1.64715 15.9997 2.15577 15.9997 2.6861C15.9997 3.21642 15.789 3.72504 15.4141 4.1001L5.5141 14.0001L15.4141 23.9001C15.7784 24.2773 15.98 24.7825 15.9754 25.3069C15.9709 25.8313 15.7605 26.3329 15.3897 26.7037C15.0189 27.0746 14.5173 27.2849 13.9929 27.2894C13.4685 27.294 12.9633 27.0924 12.5861 26.7281L1.2721 15.4141C0.897154 15.039 0.686523 14.5304 0.686523 14.0001C0.686523 13.4698 0.897154 12.9612 1.2721 12.5861L12.5861 1.2721C12.9612 0.897154 13.4698 0.686523 14.0001 0.686523C14.5304 0.686523 15.039 0.897154 15.4141 1.2721Z" fill="black"/>
</svg>
