<svg width="25" height="14" viewBox="0 0 25 14" fill="none" xmlns="http://www.w3.org/2000/svg">
<path d="M4.16825 7.96846C4.30924 7.96846 4.42203 7.96846 4.53483 7.96846C10.8794 7.96846 17.231 7.96846 23.5756 7.96846C23.7237 7.96846 23.8788 7.96846 24.0197 7.94731C24.6119 7.84862 24.9855 7.41155 24.9996 6.81939C25.0137 6.24837 24.626 5.7831 24.0409 5.67031C23.8717 5.63506 23.7096 5.63506 23.5404 5.63506C17.2028 5.63506 10.8653 5.63506 4.52072 5.63506C4.40793 5.63506 4.29514 5.63506 4.1753 5.63506C4.1894 5.47998 4.29514 5.43063 4.36564 5.36013C5.47946 4.24631 6.59329 3.13953 7.70712 2.01865C8.30633 1.41239 8.17943 0.495952 7.46038 0.129376C7.01626 -0.103259 6.48754 -0.0186644 6.09982 0.354961C5.78964 0.651042 5.48651 0.961221 5.18338 1.26435C3.66068 2.78705 2.13798 4.30975 0.615281 5.83245C0.248705 6.19903 0.0301691 6.60085 0.192309 7.13662C0.262805 7.3622 0.396746 7.54549 0.558886 7.70763C2.39177 9.54051 4.22464 11.3804 6.05752 13.2133C6.47345 13.6292 6.91757 13.7138 7.37579 13.4953C7.84106 13.2768 8.11599 12.8115 8.07369 12.3039C8.04549 11.9867 7.86925 11.747 7.65777 11.5355C6.55804 10.4358 5.45831 9.33607 4.35859 8.23634C4.30219 8.16585 4.21055 8.1165 4.16825 7.96846Z" fill="#212121"/>
</svg>
