<svg width="16" height="28" viewBox="0 0 16 28" fill="none" xmlns="http://www.w3.org/2000/svg">
<path d="M0.585904 26.7279C0.210962 26.3528 0.000331053 25.8442 0.0003311 25.3139C0.000331146 24.7836 0.210963 24.275 0.585904 23.8999L10.4859 13.9999L0.585906 4.0999C0.22159 3.7227 0.0200016 3.21749 0.0245583 2.6931C0.029115 2.16871 0.239453 1.66708 0.610269 1.29626C0.981085 0.925448 1.48271 0.715111 2.0071 0.710555C2.5315 0.705998 3.0367 0.907586 3.41391 1.2719L14.7279 12.5859C15.1028 12.961 15.3135 13.4696 15.3135 13.9999C15.3135 14.5302 15.1028 15.0388 14.7279 15.4139L3.4139 26.7279C3.03885 27.1028 2.53023 27.3135 1.9999 27.3135C1.46957 27.3135 0.960959 27.1028 0.585904 26.7279Z" fill="black"/>
</svg>
